<svg xmlns="http://www.w3.org/2000/svg" version="1.1" xmlns:xlink="http://www.w3.org/1999/xlink" xmlns:svgjs="http://svgjs.dev/svgjs" width="1000" height="1000" viewBox="0 0 1000 1000"><rect width="1000" height="1000" fill="#ffffff"></rect><g transform="matrix(0.7,0,0,0.7,149.57575757575756,282.1265587044535)"><svg viewBox="0 0 396 247" data-background-color="#ffffff" preserveAspectRatio="xMidYMid meet" height="623" width="1000" xmlns="http://www.w3.org/2000/svg" xmlns:xlink="http://www.w3.org/1999/xlink"><g id="tight-bounds" transform="matrix(1,0,0,1,0.2400000000000091,-0.09999999999999432)"><svg viewBox="0 0 395.52 247.2" height="247.2" width="395.52"><g><svg></svg></g><g><svg viewBox="0 0 395.52 247.2" height="247.2" width="395.52"><g transform="matrix(1,0,0,1,75.54432,66.41876819277108)"><svg viewBox="0 0 244.43135999999998 114.36246361445782" height="114.36246361445782" width="244.43135999999998"><g><svg viewBox="0 0 244.43135999999998 114.36246361445782" height="114.36246361445782" width="244.43135999999998"><g><svg viewBox="0 0 244.43135999999998 114.36246361445782" height="114.36246361445782" width="244.43135999999998"><g><svg viewBox="0 0 244.43135999999998 114.36246361445782" height="114.36246361445782" width="244.43135999999998"><g id="textblocktransform"><svg viewBox="0 0 244.43135999999998 114.36246361445782" height="114.36246361445782" width="244.43135999999998" id="textblock"><g><svg viewBox="0 0 244.43135999999998 114.36246361445782" height="114.36246361445782" width="244.43135999999998"><g transform="matrix(1,0,0,1,0,0)"><svg width="244.43135999999998" viewBox="-2.6500000953674316 -34.95000076293945 74.70000457763672 34.95000076293945" height="114.36246361445782" data-palette-color="#ba3b0a"><path d="M8.1 0L-2.65 0-2.65-2.15 2.15-2.15 12.75-17.95 1.6-34.95 8.9-34.95 16.7-23.15 16.95-23.15 24.75-34.95 32.05-34.95 20.9-17.95 31.45-2.15 36.3-2.15 36.3 0 25.55 0 16.95-13.15 16.7-13.15 8.1 0ZM61.65-2.15L72.05-2.15 72.05 0 33.65 0 33.65-2.15 44-2.15Q38.05-6.3 38.05-15.3L38.05-15.3 38.05-34.95 43.95-34.95 43.95-15.55Q43.95-10.75 46.35-7.95 48.75-5.15 52.85-5.15 56.95-5.15 59.35-7.95 61.75-10.75 61.75-15.55L61.75-15.55 61.75-34.95 67.65-34.95 67.65-15.3Q67.65-6.25 61.65-2.15L61.65-2.15Z" opacity="1" transform="matrix(1,0,0,1,0,0)" fill="#ba3b0a" class="wordmark-text-0" data-fill-palette-color="primary" id="text-0"></path></svg></g></svg></g></svg></g></svg></g><g></g></svg></g></svg></g></svg></g><g><path d="M109.157 39.421A122.216 122.216 0 0 1 286.363 39.421L276.05 39.421A111.902 111.902 0 0 0 119.47 39.421L109.157 39.421M109.157 207.779A122.216 122.216 0 0 0 286.363 207.779L276.05 207.779A111.902 111.902 0 0 1 119.47 207.779L109.157 207.779" fill="#ba3b0a" stroke="transparent" data-fill-palette-color="tertiary"></path></g></svg></g><defs></defs></svg><rect width="395.52" height="247.2" fill="none" stroke="none" visibility="hidden"></rect></g></svg></g></svg>